<svg width="28" height="28" viewBox="0 0 28 28" fill="none" xmlns="http://www.w3.org/2000/svg">
<path fill-rule="evenodd" clip-rule="evenodd" d="M9.02683 4.0625H18.9743C21.7148 4.0625 23.9375 6.28408 23.9375 9.02683V18.9743C23.9375 21.7148 21.7159 23.9375 18.9732 23.9375H9.02683C6.28519 23.9375 4.0625 21.7159 4.0625 18.9732V9.02683C4.0625 6.28519 6.28408 4.0625 9.02683 4.0625V4.0625Z" fill="#0A243D" stroke="#0A243D" stroke-width="1.65625" stroke-linecap="round" stroke-linejoin="round"/>
<path d="M19.4646 8.16234C19.2592 8.16344 19.0925 8.33017 19.0925 8.53555C19.0925 8.74092 19.2603 8.90765 19.4657 8.90765C19.6711 8.90765 19.8378 8.74092 19.8378 8.53555C19.8389 8.32907 19.6711 8.16234 19.4646 8.16234" stroke="white" stroke-width="1.65625" stroke-linecap="round" stroke-linejoin="round"/>
<path d="M16.8107 11.1892C18.363 12.7415 18.363 15.2583 16.8107 16.8107C15.2583 18.363 12.7415 18.363 11.1892 16.8107C9.63682 15.2583 9.63682 12.7415 11.1892 11.1892C12.7415 9.63682 15.2583 9.63682 16.8107 11.1892" stroke="white" stroke-width="1.65625" stroke-linecap="round" stroke-linejoin="round"/>
</svg>
