<svg width="28" height="28" viewBox="0 0 28 28" fill="none" xmlns="http://www.w3.org/2000/svg">
<path d="M8.413 6.27072C8.41271 6.8564 8.17977 7.41799 7.76542 7.83192C7.35107 8.24586 6.78925 8.47824 6.20357 8.47795C5.61788 8.47765 5.0563 8.24471 4.64236 7.83036C4.22843 7.41601 3.99605 6.8542 3.99634 6.26851C3.99663 5.68282 4.22957 5.12124 4.64392 4.7073C5.05827 4.29337 5.62009 4.06099 6.20578 4.06128C6.79146 4.06157 7.35304 4.29452 7.76698 4.70887C8.18092 5.12322 8.4133 5.68503 8.413 6.27072ZM8.47925 10.1132H4.06259V23.9374H8.47925V10.1132ZM15.4576 10.1132H11.063V23.9374H15.4134V16.683C15.4134 12.6418 20.6803 12.2663 20.6803 16.683V23.9374H25.0418V15.1813C25.0418 8.36863 17.2463 8.62259 15.4134 11.9682L15.4576 10.1132Z" fill="#0A243D"/>
</svg>
