<svg width="192" height="24" viewBox="0 0 192 24" fill="none" xmlns="http://www.w3.org/2000/svg">
<g clip-path="url(#clip0_18465_110886)">
<path d="M26.0581 1.59985H18.2085C19.002 2.23511 19.6417 3.03769 20.0806 3.9488C20.5195 4.85992 20.7466 5.8565 20.7451 6.86554H26.0581V1.59985Z" fill="#0A243D"/>
<path d="M13.874 6.86572V23.5612H19.204V12.1288C19.2038 11.4375 19.0658 10.753 18.7978 10.1143C18.5299 9.47569 18.1372 8.89545 17.6423 8.40672C17.1474 7.918 16.5599 7.53036 15.9133 7.26596C15.2667 7.00155 14.5738 6.86555 13.874 6.86572Z" fill="#0A243D"/>
<path d="M18.9642 5.29909C18.7066 4.48516 18.2533 3.74501 17.6429 3.14201C17.0326 2.53901 16.2834 2.09111 15.4595 1.83668C15.0785 1.71887 14.6851 1.64459 14.287 1.6153C14.1515 1.605 14.0147 1.59985 13.8766 1.59985H0L4.64724 6.18979C4.86376 6.40394 5.12087 6.57385 5.40388 6.6898C5.6869 6.80574 5.99026 6.86546 6.29664 6.86554H13.874C14.5737 6.86537 15.2667 7.00137 15.9133 7.26577C16.5598 7.53018 17.1473 7.91781 17.6423 8.40654C18.1372 8.89526 18.5298 9.47551 18.7978 10.1141C19.0657 10.7528 19.2037 11.4373 19.2039 12.1287V6.86554C19.2047 6.33441 19.1238 5.80625 18.9642 5.29909Z" fill="#0A243D"/>
<path d="M39.4553 16.721H28.0554C28.3408 19.2631 29.7061 20.1731 31.8663 20.1731C33.8661 20.1731 34.4068 19.294 34.756 18.1652H39.3289C38.5668 21.9301 35.681 23.9998 31.5484 23.9998C27.4157 23.9998 23.1333 21.8039 23.1333 15.466C23.1333 9.28778 27.1018 6.93359 31.5484 6.93359C35.8347 6.93359 39.5504 9.16035 39.5504 15.6552C39.5563 16.0128 39.5245 16.37 39.4553 16.721ZM34.6348 13.9923C34.5397 12.3602 33.8088 10.8233 31.4272 10.8233C29.3948 10.8233 28.2834 11.9521 28.062 13.9923H34.6348Z" fill="#0A243D"/>
<path d="M53.1687 7.27886V11.6139C52.7263 11.5562 52.2808 11.5248 51.8346 11.52C49.5481 11.52 47.104 12.6179 47.104 16.7277V23.5676H41.8926V7.24669H47.104V11.2947H47.2342C47.8375 8.72046 49.3944 7.12183 51.9023 7.12183C52.3294 7.12138 52.7549 7.17414 53.1687 7.27886Z" fill="#0A243D"/>
<path d="M81.0498 13.1453V23.5608H75.8384V14.4003C75.8384 12.0834 74.8222 11.1683 73.4242 11.1683C72.0263 11.1683 70.8185 12.0783 70.8185 14.4003V23.5608H65.6072V14.4003C65.6072 12.0834 64.6235 11.1683 63.1943 11.1683C61.8289 11.1683 60.6225 12.0783 60.6225 14.4003V23.5608H55.4111V7.24637H60.6225V10.6972H60.8127C61.0733 9.09727 62.8126 6.93359 65.5446 6.93359C67.8311 6.93359 69.7359 8.18727 70.4668 10.6663H70.4981C70.7834 9.06638 72.6569 6.93359 75.6104 6.93359C78.7646 6.93359 81.0498 9.03935 81.0498 13.1453Z" fill="#0A243D"/>
<path d="M89.9088 20.6753V0L83.3359 0.971789V1.59991C83.3359 1.59991 84.67 2.3722 84.67 3.85884V20.6753C84.67 22.1787 83.3359 22.9021 83.3359 22.9021V23.5611H91.2429V22.9021C91.2429 22.9021 89.9088 22.1787 89.9088 20.6753Z" fill="#0A243D"/>
<path d="M100.723 6.93359C105.883 6.93359 109.248 10.3213 109.248 15.3553C109.248 20.4537 105.787 23.9998 100.562 23.9998C95.4669 23.9998 91.9727 20.549 91.9727 15.4828C91.9753 10.3522 95.5008 6.93359 100.723 6.93359ZM100.565 22.0395C102.584 22.0395 103.93 19.4111 103.93 15.4853C103.93 11.4952 102.584 8.92995 100.597 8.92995C98.6432 8.92995 97.2961 11.5583 97.2961 15.5484C97.2961 19.4716 98.6106 22.0395 100.565 22.0395Z" fill="#0A243D"/>
<path d="M125.833 13.1082V21.0241C125.833 21.8466 126.093 22.1632 126.729 22.1632C126.879 22.1561 127.026 22.1118 127.155 22.0345C127.283 21.9571 127.391 21.8492 127.466 21.7204C127.466 22.512 126.313 23.9999 123.91 23.9999C122.178 23.9999 120.96 23.2084 120.608 21.5943C119.55 23.1775 117.819 23.9999 115.896 23.9999C112.947 23.9999 110.671 22.1001 110.671 19.2504C110.671 13.4248 120.062 14.0581 120.288 11.4297C119.647 9.33943 117.943 8.64309 116.826 8.64309C116.377 8.64309 116.056 8.73834 115.896 8.86448C116.185 9.09901 116.418 9.3936 116.579 9.7273C116.74 10.061 116.824 10.4256 116.826 10.7952C116.816 11.45 116.544 12.0743 116.07 12.5312C115.595 12.9882 114.956 13.2406 114.293 13.233C112.884 13.233 111.762 12.1248 111.762 10.6678C111.762 8.47963 114.166 6.93506 118.204 6.93506C121.794 6.93377 125.833 8.16813 125.833 13.1082ZM120.512 13.7723C118.909 14.9127 115.992 15.4456 115.992 18.1744C115.992 19.7575 116.986 20.7383 118.012 20.7383C119.166 20.7383 120.319 19.504 120.512 17.6363V13.7723Z" fill="#0A243D"/>
<path d="M146.739 22.1684C146.098 22.1684 145.841 21.8518 145.841 21.0293V12.8276C145.841 9.31374 143.982 6.93896 140.553 6.93896C138.277 6.93896 136.354 8.01502 135.201 9.78869V7.28135L128.567 8.26729V8.90056C128.567 8.90056 129.913 9.67285 129.913 11.1801V20.7744C129.913 22.292 128.567 23.0231 128.567 23.0231V23.6872H136.551V23.0231C136.551 23.0231 135.205 22.292 135.205 20.7744V12.8894C135.429 10.8004 136.519 9.43859 138.026 9.43859C139.628 9.43859 140.526 10.8313 140.526 13.143V20.3625C140.526 22.8647 141.808 24.0039 143.922 24.0039C146.326 24.0039 147.512 22.5159 147.512 21.7243C147.428 21.8537 147.314 21.9615 147.18 22.0388C147.045 22.116 146.894 22.1604 146.739 22.1684Z" fill="#0A243D"/>
<path d="M149.379 11.5879C149.379 8.73816 152.07 6.93359 156.173 6.93359C160.371 6.93359 162.487 8.8643 162.487 10.7332C162.487 12.0307 161.494 13.0127 160.243 13.0127C159.775 13.0171 159.318 12.8776 158.934 12.6136C158.55 12.3497 158.259 11.9743 158.1 11.5395C157.942 11.1047 157.924 10.6319 158.05 10.1868C158.175 9.7416 158.438 9.34601 158.801 9.0548C158.54 8.76905 157.679 8.48459 156.75 8.48459C155.275 8.48459 154.442 9.24401 154.442 10.1579C154.442 13.1029 162.743 13.9253 162.743 19.2451C162.743 22.2222 160.147 23.9946 155.789 23.9946C151.173 23.9946 148.576 22.0317 148.576 19.8758C148.576 18.42 149.699 17.2796 151.141 17.2796C151.816 17.2884 152.459 17.5591 152.933 18.0332C153.407 18.5072 153.673 19.1465 153.673 19.8127C153.667 20.1815 153.581 20.5447 153.421 20.8778C153.261 21.2109 153.03 21.5061 152.744 21.7434C153.064 21.9648 153.64 22.2493 154.858 22.2493C156.781 22.2493 157.648 21.5207 157.648 20.5078C157.648 17.4778 149.379 16.4636 149.379 11.5879Z" fill="#0A243D"/>
<path d="M164.496 23.265C164.495 23.1683 164.514 23.0725 164.552 22.9831C164.589 22.8937 164.644 22.8125 164.713 22.7441C164.782 22.6756 164.864 22.6214 164.954 22.5844C165.045 22.5475 165.142 22.5285 165.24 22.5287C165.34 22.5246 165.44 22.5405 165.534 22.5756C165.628 22.6107 165.714 22.6642 165.787 22.7329C165.859 22.8017 165.917 22.8841 165.956 22.9755C165.996 23.0668 166.016 23.165 166.016 23.2643C166.016 23.3636 165.996 23.4618 165.956 23.5532C165.917 23.6445 165.859 23.727 165.787 23.7957C165.714 23.8644 165.628 23.9179 165.534 23.953C165.44 23.9881 165.34 24.0041 165.24 23.9999C165.142 24.0001 165.045 23.9812 164.955 23.9443C164.864 23.9074 164.782 23.8533 164.713 23.785C164.644 23.7168 164.589 23.6357 164.552 23.5464C164.515 23.4572 164.495 23.3615 164.496 23.265Z" fill="#0A243D"/>
<path d="M166.996 20.4656C166.996 18.02 168.559 16.9041 170.333 16.9041C171.571 16.9041 173.021 17.4434 173.274 19.3612H172.316C172.117 18.2182 171.226 17.7845 170.32 17.7845C168.977 17.7845 168.007 18.7048 168.007 20.4656C168.007 22.2006 168.977 23.1068 170.32 23.1068C171.232 23.1068 172.117 22.6859 172.316 21.503H173.274C173.034 23.4479 171.571 24.0001 170.333 24.0001C168.566 24.0001 166.996 22.8828 166.996 20.4656Z" fill="#0A243D"/>
<path d="M174.044 20.4527C174.044 18.0213 175.654 16.9041 177.37 16.9041C179.086 16.9041 180.695 18.0213 180.695 20.4527C180.695 22.8841 179.086 24.0001 177.37 24.0001C175.654 24.0001 174.044 22.8828 174.044 20.4527ZM179.671 20.4527C179.671 18.6121 178.567 17.7845 177.37 17.7845C176.173 17.7845 175.055 18.6121 175.055 20.4527C175.055 22.2933 176.16 23.1068 177.37 23.1068C178.58 23.1068 179.675 22.2972 179.675 20.4527H179.671Z" fill="#0A243D"/>
<path d="M192.001 19.6508V23.8688H190.937V19.8606C190.937 18.5606 190.416 17.8012 189.288 17.8012C188.159 17.8012 187.478 18.5645 187.478 19.8606V23.8688H186.415V19.8606C186.415 18.5606 185.894 17.8012 184.766 17.8012C183.637 17.8012 182.956 18.5645 182.956 19.8606V23.8688H181.89V17.0353H182.955V18.2581C183.141 17.7587 183.779 16.9041 185.15 16.9041C186.094 16.9041 186.932 17.3121 187.29 18.3495C187.504 17.8115 188.169 16.9041 189.636 16.9041C190.95 16.9041 192.001 17.6403 192.001 19.6508Z" fill="#0A243D"/>
</g>
<defs>
<clipPath id="clip0_18465_110886">
<rect width="192" height="24" fill="white"/>
</clipPath>
</defs>
</svg>
