<svg width="28" height="28" viewBox="0 0 28 28" fill="none" xmlns="http://www.w3.org/2000/svg">
<path fill-rule="evenodd" clip-rule="evenodd" d="M21.95 11.0741C21.95 18.0303 17.975 22.9991 11.0188 22.9991C7.04375 22.9991 5.45044 20.9243 4.0625 19.0241M4.0625 19.024C4.09452 19.0185 7.04375 18.0302 7.04375 18.0302C3.72463 14.6747 3.47287 9.70481 6.05 6.10522C7.27231 8.3787 9.55462 10.4766 12.0125 11.074C12.1075 8.20314 14.0541 6.10522 16.9812 6.10522C18.9743 6.10522 20.1469 6.86489 20.9562 8.09272H23.9375L21.95 11.074" fill="#0A243D"/>
<path d="M22.7781 11.0741C22.7781 10.6167 22.4074 10.2459 21.95 10.2459C21.4926 10.2459 21.1219 10.6167 21.1219 11.0741H22.7781ZM4.73124 18.5356C4.46148 18.1663 3.94339 18.0856 3.57406 18.3553C3.20472 18.6251 3.124 19.1432 3.39376 19.5125L4.73124 18.5356ZM3.9218 18.2079C3.47109 18.2856 3.16871 18.714 3.24642 19.1647C3.32412 19.6154 3.75249 19.9178 4.2032 19.8401L3.9218 18.2079ZM7.04375 18.0302L7.30686 18.8154C7.57802 18.7246 7.78311 18.5003 7.84935 18.2221C7.91559 17.9439 7.83362 17.6512 7.63251 17.4479L7.04375 18.0302ZM6.05 6.10522L6.77939 5.71308C6.644 5.46126 6.3883 5.29709 6.10298 5.2788C5.81767 5.2605 5.54309 5.39068 5.37666 5.62314L6.05 6.10522ZM12.0125 11.074L11.8169 11.8787C12.0591 11.9375 12.315 11.8842 12.5134 11.7334C12.7119 11.5826 12.8319 11.3505 12.8402 11.1014L12.0125 11.074ZM20.9562 8.09272L20.2648 8.54849C20.4181 8.78095 20.6778 8.92085 20.9562 8.92085V8.09272ZM23.9375 8.09272L24.6265 8.55209C24.796 8.29797 24.8117 7.97124 24.6676 7.70197C24.5235 7.4327 24.2429 7.2646 23.9375 7.2646V8.09272ZM21.261 10.6146C21.0073 10.9952 21.1101 11.5093 21.4906 11.763C21.8712 12.0167 22.3853 11.9139 22.639 11.5333L21.261 10.6146ZM21.95 11.0741H21.1219C21.1219 14.3998 20.1724 17.1702 18.472 19.0973C16.783 21.0115 14.2863 22.1709 11.0188 22.1709V22.9991V23.8272C14.7074 23.8272 17.6764 22.5023 19.7139 20.1931C21.7401 17.8967 22.7781 14.7046 22.7781 11.0741H21.95ZM11.0188 22.9991V22.1709C9.19089 22.1709 7.96838 21.6989 7.04882 21.0482C6.10396 20.3796 5.42915 19.4912 4.73124 18.5356L4.0625 19.0241L3.39376 19.5125C4.08379 20.4572 4.8996 21.5563 6.09213 22.4002C7.30996 23.2619 8.87161 23.8272 11.0188 23.8272V22.9991ZM4.0625 19.024L4.2032 19.8401C4.22944 19.8355 4.24974 19.8307 4.25676 19.829C4.26631 19.8267 4.27404 19.8247 4.27868 19.8234C4.28795 19.8209 4.2955 19.8187 4.29942 19.8176C4.30776 19.8151 4.31535 19.8128 4.32027 19.8113C4.33083 19.808 4.34317 19.804 4.35567 19.8C4.38132 19.7917 4.41643 19.7802 4.45869 19.7663C4.54362 19.7384 4.66241 19.699 4.8031 19.6522C5.08472 19.5586 5.45687 19.4344 5.82762 19.3105C6.19846 19.1865 6.56827 19.0628 6.84534 18.97C6.98388 18.9236 7.09925 18.885 7.17998 18.8579C7.22035 18.8444 7.25207 18.8338 7.27369 18.8266C7.2845 18.8229 7.29279 18.8202 7.29838 18.8183C7.30117 18.8173 7.30329 18.8166 7.30471 18.8162C7.30542 18.8159 7.30596 18.8157 7.30632 18.8156C7.3065 18.8156 7.30663 18.8155 7.30672 18.8155C7.30677 18.8155 7.3068 18.8155 7.30683 18.8155C7.30685 18.8154 7.30686 18.8154 7.04375 18.0302C6.78064 17.245 6.78063 17.245 6.78061 17.245C6.78058 17.245 6.78055 17.245 6.78051 17.2451C6.78042 17.2451 6.78029 17.2451 6.78011 17.2452C6.77975 17.2453 6.77922 17.2455 6.77851 17.2457C6.7771 17.2462 6.77499 17.2469 6.7722 17.2478C6.76662 17.2497 6.75835 17.2525 6.74755 17.2561C6.72596 17.2633 6.69428 17.2739 6.65394 17.2875C6.57327 17.3145 6.45798 17.3531 6.31953 17.3994C6.04262 17.4921 5.67311 17.6158 5.30264 17.7396C4.93208 17.8634 4.56092 17.9873 4.28056 18.0805C4.14026 18.1272 4.02339 18.1659 3.9409 18.1931C3.89945 18.2067 3.86791 18.217 3.84684 18.2238C3.83599 18.2273 3.82995 18.2292 3.82747 18.23C3.82587 18.2305 3.82828 18.2298 3.83281 18.2284C3.83483 18.2278 3.84082 18.2261 3.84889 18.2239C3.85292 18.2228 3.86013 18.2209 3.86926 18.2187C3.87584 18.2171 3.89581 18.2124 3.9218 18.2079L4.0625 19.024ZM7.04375 18.0302L7.63251 17.4479C4.60289 14.385 4.37627 9.86557 6.72334 6.5873L6.05 6.10522L5.37666 5.62314C2.56948 9.54405 2.84636 14.9643 6.45499 18.6126L7.04375 18.0302ZM6.05 6.10522L5.32061 6.49737C6.62361 8.92093 9.07452 11.2122 11.8169 11.8787L12.0125 11.074L12.2081 10.2693C10.0347 9.74107 7.92102 7.83648 6.77939 5.71308L6.05 6.10522ZM12.0125 11.074L12.8402 11.1014C12.8817 9.84703 13.3242 8.81007 14.0267 8.09224C14.7247 7.37893 15.7248 6.93335 16.9812 6.93335V6.10522V5.2771C15.3106 5.2771 13.8737 5.88048 12.8429 6.93383C11.8165 7.98267 11.2383 9.43009 11.1848 11.0466L12.0125 11.074ZM16.9812 6.10522V6.93335C17.8708 6.93335 18.5225 7.10219 19.0227 7.36913C19.5211 7.63513 19.9203 8.02576 20.2648 8.54849L20.9562 8.09272L21.6477 7.63696C21.1829 6.93185 20.591 6.32874 19.8025 5.90794C19.0158 5.4881 18.0847 5.2771 16.9812 5.2771V6.10522ZM20.9562 8.09272V8.92085H23.9375V8.09272V7.2646H20.9562V8.09272ZM23.9375 8.09272L23.2485 7.63336L21.261 10.6146L21.95 11.074L22.639 11.5333L24.6265 8.55209L23.9375 8.09272Z" fill="#0A243D"/>
</svg>
