<svg width="28" height="28" viewBox="0 0 28 28" fill="none" xmlns="http://www.w3.org/2000/svg">
<path fill-rule="evenodd" clip-rule="evenodd" d="M24.5814 7.78697C24.3285 6.67838 23.5799 5.80388 22.6281 5.50355C20.9067 4.96582 14.0002 4.96582 14.0002 4.96582C14.0002 4.96582 7.09691 4.96582 5.3722 5.50355C4.42373 5.79947 3.6751 6.67397 3.41893 7.78697C2.9585 9.79876 2.9585 14.0001 2.9585 14.0001C2.9585 14.0001 2.9585 18.2015 3.41893 20.2133C3.67179 21.3218 4.42041 22.1963 5.3722 22.4967C7.09691 23.0344 14.0002 23.0344 14.0002 23.0344C14.0002 23.0344 20.9067 23.0344 22.6281 22.4967C23.5766 22.2008 24.3252 21.3263 24.5814 20.2133C25.0418 18.2015 25.0418 14.0001 25.0418 14.0001C25.0418 14.0001 25.0418 9.79876 24.5814 7.78697Z" fill="#0A243D" stroke="#0A243D" stroke-width="1.65625" stroke-linecap="round" stroke-linejoin="round"/>
<path fill-rule="evenodd" clip-rule="evenodd" d="M11.7939 17.3125L17.5312 14L11.7939 10.6875V17.3125Z" fill="white" stroke="white" stroke-width="1.65625" stroke-linecap="round" stroke-linejoin="round"/>
</svg>
